<svg xmlns="http://www.w3.org/2000/svg" width="380" height="380" shape-rendering="crispEdges"><path fill="#222233" fill-opacity="0.059" d="M23 29h1v1h-1zM356 29h1v1h-1z"/><path fill="#271f2e" fill-opacity="0.259" d="M24 29h21v1h-21zM46 29h22v1h-22zM69 29h21v1h-21zM91 29h21v1h-21zM113 29h21v1h-21zM135 29h21v1h-21zM157 29h21v1h-21zM179 29h22v1h-22zM202 29h21v1h-21zM224 29h21v1h-21zM246 29h21v1h-21zM268 29h21v1h-21zM290 29h21v1h-21zM312 29h22v1h-22zM335 29h21v1h-21zM135 362h21v1h-21zM157 362h21v1h-21zM179 362h22v1h-22zM202 362h21v1h-21zM224 362h21v1h-21z"/><path fill="#281c30" fill-opacity="0.251" d="M45 29h1v1h-1zM334 29h1v1h-1z"/><path fill="#28202c" fill-opacity="0.251" d="M68 29h1v1h-1zM311 29h1v1h-1z"/><path fill="#252129" fill-opacity="0.243" d="M90 29h1v1h-1zM289 29h1v1h-1z"/><path fill="#261d2e" fill-opacity="0.239" d="M112 29h1v1h-1zM134 29h1v1h-1zM245 29h1v1h-1zM267 29h1v1h-1z"/><path fill="#25212d" fill-opacity="0.243" d="M156 29h1v1h-1zM223 29h1v1h-1zM156 362h1v1h-1zM223 362h1v1h-1z"/><path fill="#282030" fill-opacity="0.251" d="M178 29h1v1h-1zM201 29h1v1h-1zM178 362h1v1h-1zM201 362h1v1h-1z"/><path fill="#261e2f" fill-opacity="0.235" d="M23 30h1v21h-1zM356 30h1v21h-1zM1 273h1v1h-1zM378 273h1v1h-1zM23 274h1v21h-1zM356 274h1v21h-1z"/><path fill="#251e2d" d="M24 30h21v21h-21zM46 30h22v21h-22zM69 30h21v21h-21zM91 30h21v21h-21zM113 30h21v21h-21zM135 30h21v21h-21zM157 30h21v21h-21zM179 30h22v21h-22zM202 30h21v21h-21zM224 30h21v21h-21zM246 30h21v21h-21zM268 30h21v21h-21zM290 30h21v21h-21zM312 30h22v21h-22zM335 30h21v21h-21zM2 52h21v22h-21zM357 52h21v22h-21zM2 75h21v21h-21zM357 75h21v21h-21zM2 97h21v21h-21zM357 97h21v21h-21zM2 119h21v21h-21zM357 119h21v21h-21zM2 141h21v21h-21zM357 141h21v21h-21zM2 163h21v21h-21zM357 163h21v21h-21zM2 185h21v22h-21zM357 185h21v22h-21zM2 208h21v21h-21zM357 208h21v21h-21zM2 230h21v21h-21zM357 230h21v21h-21zM2 252h21v21h-21zM357 252h21v21h-21zM24 274h21v21h-21zM46 274h22v21h-22zM69 274h21v21h-21zM91 274h21v21h-21zM113 274h21v21h-21zM135 274h21v21h-21zM157 274h21v21h-21zM179 274h22v21h-22zM202 274h21v21h-21zM224 274h21v21h-21zM246 274h21v21h-21zM268 274h21v21h-21zM290 274h21v21h-21zM312 274h22v21h-22zM335 274h21v21h-21zM157 296h21v21h-21zM202 296h21v21h-21zM135 318h21v22h-21zM224 318h21v22h-21zM135 341h21v21h-21zM157 341h21v21h-21zM179 341h22v21h-22zM202 341h21v21h-21zM224 341h21v21h-21z"/><path fill="#261e2d" fill-opacity="0.937" d="M45 30h1v21h-1zM45 274h1v21h-1z"/><path fill="#251d2d" fill-opacity="0.918" d="M68 30h1v21h-1zM311 30h1v21h-1zM68 274h1v21h-1zM311 274h1v21h-1z"/><path fill="#261e2e" fill-opacity="0.812" d="M90 30h1v21h-1zM289 30h1v21h-1zM90 274h1v21h-1zM289 274h1v21h-1z"/><path fill="#251d2d" fill-opacity="0.757" d="M112 30h1v21h-1zM112 274h1v21h-1z"/><path fill="#251e2e" fill-opacity="0.761" d="M134 30h1v21h-1zM245 30h1v21h-1zM134 274h1v21h-1zM245 274h1v21h-1z"/><path fill="#251d2d" fill-opacity="0.816" d="M156 30h1v21h-1zM156 274h1v21h-1zM157 295h21v1h-21z"/><path fill="#251e2d" fill-opacity="0.929" d="M178 30h1v21h-1zM2 74h21v1h-21zM357 74h21v1h-21zM178 274h1v21h-1z"/><path fill="#251e2c" fill-opacity="0.929" d="M201 30h1v21h-1zM201 274h1v21h-1zM178 341h1v21h-1zM201 341h1v21h-1z"/><path fill="#251f2d" fill-opacity="0.816" d="M223 30h1v21h-1zM2 96h21v1h-21zM357 96h21v1h-21zM2 229h21v1h-21zM357 229h21v1h-21zM223 274h1v21h-1zM202 295h21v1h-21zM156 341h1v21h-1zM223 341h1v21h-1z"/><path fill="#251e2d" fill-opacity="0.757" d="M267 30h1v21h-1zM267 274h1v21h-1zM24 295h21v1h-21zM46 295h22v1h-22zM69 295h21v1h-21zM91 295h21v1h-21zM113 295h21v1h-21zM135 295h21v1h-21zM224 295h21v1h-21zM246 295h21v1h-21zM268 295h21v1h-21zM290 295h21v1h-21zM312 295h22v1h-22zM335 295h21v1h-21z"/><path fill="#251e2d" fill-opacity="0.937" d="M334 30h1v21h-1zM334 274h1v21h-1z"/><path fill="#1c1c39" fill-opacity="0.035" d="M1 51h1v1h-1zM378 51h1v1h-1z"/><path fill="#21212c" fill-opacity="0.090" d="M2 51h21v1h-21zM357 51h21v1h-21z"/><path fill="#241d32" fill-opacity="0.278" d="M23 51h1v1h-1z"/><path fill="#261e2e" fill-opacity="0.922" d="M24 51h21v1h-21zM46 51h22v1h-22zM69 51h21v1h-21zM91 51h21v1h-21zM113 51h21v1h-21zM135 51h21v1h-21zM157 51h21v1h-21zM179 51h22v1h-22zM157 340h21v1h-21zM179 340h22v1h-22zM202 340h21v1h-21z"/><path fill="#251e2e" fill-opacity="0.867" d="M45 51h1v1h-1z"/><path fill="#271e2e" fill-opacity="0.855" d="M68 51h1v1h-1z"/><path fill="#271f2d" fill-opacity="0.773" d="M90 51h1v1h-1z"/><path fill="#261f2e" fill-opacity="0.733" d="M112 51h1v1h-1z"/><path fill="#261e2e" fill-opacity="0.733" d="M134 51h1v1h-1z"/><path fill="#25202e" fill-opacity="0.776" d="M156 51h1v1h-1z"/><path fill="#261e2d" fill-opacity="0.863" d="M178 51h1v1h-1z"/><path fill="#251e2d" fill-opacity="0.859" d="M201 51h1v1h-1z"/><path fill="#251d2c" fill-opacity="0.922" d="M202 51h21v1h-21zM224 51h21v1h-21zM246 51h21v1h-21zM268 51h21v1h-21zM290 51h21v1h-21zM312 51h22v1h-22zM335 51h21v1h-21zM135 340h21v1h-21zM224 340h21v1h-21z"/><path fill="#251f2d" fill-opacity="0.776" d="M223 51h1v1h-1z"/><path fill="#261e2d" fill-opacity="0.733" d="M245 51h1v1h-1z"/><path fill="#251f2d" fill-opacity="0.733" d="M267 51h1v1h-1z"/><path fill="#271e2d" fill-opacity="0.773" d="M289 51h1v1h-1z"/><path fill="#251e2e" fill-opacity="0.855" d="M311 51h1v1h-1z"/><path fill="#251e2d" fill-opacity="0.871" d="M334 51h1v1h-1z"/><path fill="#24202f" fill-opacity="0.278" d="M356 51h1v1h-1z"/><path fill="#251e2d" fill-opacity="0.404" d="M1 52h1v22h-1zM378 52h1v22h-1zM1 75h1v21h-1zM378 75h1v21h-1zM1 97h1v21h-1zM378 97h1v21h-1zM1 119h1v21h-1zM378 119h1v21h-1zM1 141h1v21h-1zM378 141h1v21h-1zM1 163h1v21h-1zM378 163h1v21h-1zM1 185h1v22h-1zM378 185h1v22h-1zM1 208h1v21h-1zM378 208h1v21h-1zM1 230h1v21h-1zM378 230h1v21h-1zM1 252h1v21h-1zM378 252h1v21h-1z"/><path fill="#2e2837" fill-opacity="0.824" d="M23 52h1v22h-1zM23 75h1v21h-1zM23 97h1v21h-1zM23 119h1v21h-1zM23 141h1v21h-1zM23 163h1v21h-1zM23 185h1v22h-1zM23 208h1v21h-1z"/><path fill="#47414d" d="M24 52h21v22h-21zM46 52h22v22h-22zM69 52h21v22h-21zM91 52h21v22h-21zM113 52h21v22h-21zM135 52h21v22h-21zM157 52h21v22h-21zM179 52h22v22h-22zM24 75h21v21h-21zM46 75h22v21h-22zM69 75h21v21h-21zM91 75h21v21h-21zM113 75h21v21h-21zM135 75h21v21h-21zM157 75h21v21h-21zM179 75h22v21h-22zM24 97h21v21h-21zM46 97h22v21h-22zM69 97h21v21h-21zM91 97h21v21h-21zM113 97h21v21h-21zM135 97h21v21h-21zM157 97h21v21h-21zM179 97h22v21h-22zM24 119h21v21h-21zM46 119h22v21h-22zM69 119h21v21h-21zM91 119h21v21h-21zM113 119h21v21h-21zM135 119h21v21h-21zM157 119h21v21h-21zM179 119h22v21h-22zM24 141h21v21h-21zM46 141h22v21h-22zM69 141h21v21h-21zM91 141h21v21h-21zM113 141h21v21h-21zM135 141h21v21h-21zM157 141h21v21h-21zM179 141h22v21h-22zM24 163h21v21h-21zM46 163h22v21h-22zM69 163h21v21h-21zM91 163h21v21h-21zM113 163h21v21h-21zM135 163h21v21h-21zM157 163h21v21h-21zM179 163h22v21h-22zM24 185h21v22h-21zM46 185h22v22h-22zM69 185h21v22h-21zM91 185h21v22h-21zM113 185h21v22h-21zM135 185h21v22h-21zM157 185h21v22h-21zM179 185h22v22h-22zM24 208h21v21h-21zM46 208h22v21h-22zM69 208h21v21h-21zM91 208h21v21h-21zM113 208h21v21h-21zM135 208h21v21h-21zM157 208h21v21h-21zM179 208h22v21h-22z"/><path fill="#46424d" fill-opacity="0.937" d="M45 52h1v22h-1zM45 75h1v21h-1zM45 97h1v21h-1zM45 119h1v21h-1zM45 141h1v21h-1zM45 163h1v21h-1zM45 185h1v22h-1zM45 208h1v21h-1z"/><path fill="#48414d" fill-opacity="0.918" d="M68 52h1v22h-1zM68 75h1v21h-1zM68 97h1v21h-1zM68 119h1v21h-1zM68 141h1v21h-1zM68 163h1v21h-1zM68 185h1v22h-1zM68 208h1v21h-1z"/><path fill="#47404c" fill-opacity="0.812" d="M90 52h1v22h-1zM90 75h1v21h-1zM90 97h1v21h-1zM90 119h1v21h-1zM90 141h1v21h-1zM90 163h1v21h-1zM90 185h1v22h-1zM90 208h1v21h-1z"/><path fill="#47424e" fill-opacity="0.757" d="M112 52h1v22h-1zM112 75h1v21h-1zM112 97h1v21h-1zM112 119h1v21h-1zM112 141h1v21h-1zM112 163h1v21h-1zM112 185h1v22h-1zM112 208h1v21h-1z"/><path fill="#47404e" fill-opacity="0.761" d="M134 52h1v22h-1zM134 75h1v21h-1zM134 97h1v21h-1zM134 119h1v21h-1zM134 141h1v21h-1zM134 163h1v21h-1zM134 185h1v22h-1zM134 208h1v21h-1z"/><path fill="#48414d" fill-opacity="0.816" d="M156 52h1v22h-1zM156 75h1v21h-1zM156 97h1v21h-1zM156 119h1v21h-1zM156 141h1v21h-1zM156 163h1v21h-1zM156 185h1v22h-1zM156 208h1v21h-1z"/><path fill="#47414c" fill-opacity="0.929" d="M178 52h1v22h-1zM24 74h21v1h-21zM46 74h22v1h-22zM69 74h21v1h-21zM91 74h21v1h-21zM113 74h21v1h-21zM135 74h21v1h-21zM157 74h21v1h-21zM179 74h22v1h-22zM178 75h1v21h-1zM178 97h1v21h-1zM178 119h1v21h-1zM178 141h1v21h-1zM178 163h1v21h-1zM178 185h1v22h-1zM178 208h1v21h-1z"/><path fill="#37313c" fill-opacity="0.929" d="M201 52h1v22h-1zM202 74h21v1h-21zM224 74h21v1h-21zM246 74h21v1h-21zM268 74h21v1h-21zM290 74h21v1h-21zM312 74h22v1h-22zM335 74h21v1h-21zM201 75h1v21h-1zM201 97h1v21h-1zM201 119h1v21h-1zM201 141h1v21h-1zM201 163h1v21h-1zM201 185h1v22h-1zM201 208h1v21h-1z"/><path fill="#37323d" d="M202 52h21v22h-21zM224 52h21v22h-21zM246 52h21v22h-21zM268 52h21v22h-21zM290 52h21v22h-21zM312 52h22v22h-22zM335 52h21v22h-21zM202 75h21v21h-21zM224 75h21v21h-21zM246 75h21v21h-21zM268 75h21v21h-21zM290 75h21v21h-21zM312 75h22v21h-22zM335 75h21v21h-21zM202 97h21v21h-21zM224 97h21v21h-21zM246 97h21v21h-21zM268 97h21v21h-21zM290 97h21v21h-21zM312 97h22v21h-22zM335 97h21v21h-21zM202 119h21v21h-21zM224 119h21v21h-21zM246 119h21v21h-21zM268 119h21v21h-21zM290 119h21v21h-21zM312 119h22v21h-22zM335 119h21v21h-21zM202 141h21v21h-21zM224 141h21v21h-21zM246 141h21v21h-21zM268 141h21v21h-21zM290 141h21v21h-21zM312 141h22v21h-22zM335 141h21v21h-21zM202 163h21v21h-21zM224 163h21v21h-21zM246 163h21v21h-21zM268 163h21v21h-21zM290 163h21v21h-21zM312 163h22v21h-22zM335 163h21v21h-21zM202 185h21v22h-21zM224 185h21v22h-21zM246 185h21v22h-21zM268 185h21v22h-21zM290 185h21v22h-21zM312 185h22v22h-22zM335 185h21v22h-21zM202 208h21v21h-21zM224 208h21v21h-21zM246 208h21v21h-21zM268 208h21v21h-21zM290 208h21v21h-21zM312 208h22v21h-22zM335 208h21v21h-21z"/><path fill="#37323d" fill-opacity="0.816" d="M223 52h1v22h-1zM223 75h1v21h-1zM202 96h21v1h-21zM224 96h21v1h-21zM246 96h21v1h-21zM268 96h21v1h-21zM290 96h21v1h-21zM312 96h22v1h-22zM335 96h21v1h-21zM223 97h1v21h-1zM223 119h1v21h-1zM223 141h1v21h-1zM223 163h1v21h-1zM223 185h1v22h-1zM223 208h1v21h-1z"/><path fill="#37333c" fill-opacity="0.761" d="M245 52h1v22h-1zM245 75h1v21h-1zM245 97h1v21h-1zM245 119h1v21h-1zM245 141h1v21h-1zM245 163h1v21h-1zM245 185h1v22h-1zM245 208h1v21h-1z"/><path fill="#36323d" fill-opacity="0.757" d="M267 52h1v22h-1zM267 75h1v21h-1zM267 97h1v21h-1zM267 119h1v21h-1zM267 141h1v21h-1zM267 163h1v21h-1zM267 185h1v22h-1zM267 208h1v21h-1z"/><path fill="#36313c" fill-opacity="0.812" d="M289 52h1v22h-1zM289 75h1v21h-1zM289 97h1v21h-1zM289 119h1v21h-1zM289 141h1v21h-1zM289 163h1v21h-1zM289 185h1v22h-1zM289 208h1v21h-1z"/><path fill="#36323d" fill-opacity="0.918" d="M311 52h1v22h-1zM311 75h1v21h-1zM311 97h1v21h-1zM311 119h1v21h-1zM311 141h1v21h-1zM311 163h1v21h-1zM311 185h1v22h-1zM311 208h1v21h-1z"/><path fill="#36323d" fill-opacity="0.937" d="M334 52h1v22h-1zM334 75h1v21h-1zM334 97h1v21h-1zM334 119h1v21h-1zM334 141h1v21h-1zM334 163h1v21h-1zM334 185h1v22h-1zM334 208h1v21h-1z"/><path fill="#26202e" fill-opacity="0.824" d="M356 52h1v22h-1zM356 75h1v21h-1zM356 97h1v21h-1zM356 119h1v21h-1zM356 141h1v21h-1zM356 163h1v21h-1zM356 185h1v22h-1zM356 208h1v21h-1z"/><path fill="#271f2e" fill-opacity="0.388" d="M1 74h1v1h-1zM378 74h1v1h-1zM1 207h1v1h-1zM378 207h1v1h-1z"/><path fill="#2e2737" fill-opacity="0.788" d="M23 74h1v1h-1z"/><path fill="#47414d" fill-opacity="0.878" d="M45 74h1v1h-1z"/><path fill="#47414d" fill-opacity="0.859" d="M68 74h1v1h-1zM68 207h1v1h-1z"/><path fill="#48414d" fill-opacity="0.780" d="M90 74h1v1h-1zM156 207h1v1h-1z"/><path fill="#47414c" fill-opacity="0.737" d="M112 74h1v1h-1z"/><path fill="#48404c" fill-opacity="0.737" d="M134 74h1v1h-1z"/><path fill="#46414d" fill-opacity="0.780" d="M156 74h1v1h-1zM156 184h1v1h-1z"/><path fill="#46414d" fill-opacity="0.871" d="M178 74h1v1h-1z"/><path fill="#37313e" fill-opacity="0.871" d="M201 74h1v1h-1z"/><path fill="#37323e" fill-opacity="0.780" d="M223 74h1v1h-1zM223 207h1v1h-1z"/><path fill="#36323d" fill-opacity="0.737" d="M245 74h1v1h-1zM267 74h1v1h-1zM201 140h1v1h-1z"/><path fill="#37323d" fill-opacity="0.776" d="M289 74h1v1h-1zM311 162h1v1h-1z"/><path fill="#38323e" fill-opacity="0.859" d="M311 74h1v1h-1zM311 207h1v1h-1z"/><path fill="#37323c" fill-opacity="0.878" d="M334 74h1v1h-1z"/><path fill="#26202f" fill-opacity="0.788" d="M356 74h1v1h-1z"/><path fill="#261e2e" fill-opacity="0.369" d="M1 96h1v1h-1zM378 96h1v1h-1zM1 162h1v1h-1zM378 162h1v1h-1zM1 229h1v1h-1zM378 229h1v1h-1z"/><path fill="#2e2637" fill-opacity="0.733" d="M23 96h1v1h-1z"/><path fill="#47414d" fill-opacity="0.816" d="M24 96h21v1h-21zM46 96h22v1h-22zM69 96h21v1h-21zM91 96h21v1h-21zM113 96h21v1h-21zM135 96h21v1h-21zM157 96h21v1h-21zM179 96h22v1h-22z"/><path fill="#47414e" fill-opacity="0.784" d="M45 96h1v1h-1z"/><path fill="#47404d" fill-opacity="0.776" d="M68 96h1v1h-1z"/><path fill="#47404d" fill-opacity="0.729" d="M90 96h1v1h-1z"/><path fill="#47424d" fill-opacity="0.702" d="M112 96h1v1h-1zM134 96h1v1h-1zM90 140h1v1h-1z"/><path fill="#46404d" fill-opacity="0.729" d="M156 96h1v1h-1z"/><path fill="#46414e" fill-opacity="0.780" d="M178 96h1v1h-1zM68 162h1v1h-1zM178 162h1v1h-1z"/><path fill="#37333e" fill-opacity="0.780" d="M201 96h1v1h-1z"/><path fill="#37313c" fill-opacity="0.729" d="M223 96h1v1h-1z"/><path fill="#36323d" fill-opacity="0.702" d="M245 96h1v1h-1zM267 96h1v1h-1z"/><path fill="#37333c" fill-opacity="0.729" d="M289 96h1v1h-1zM289 162h1v1h-1z"/><path fill="#38323e" fill-opacity="0.773" d="M311 96h1v1h-1z"/><path fill="#38323d" fill-opacity="0.784" d="M334 96h1v1h-1z"/><path fill="#26212e" fill-opacity="0.733" d="M356 96h1v1h-1z"/><path fill="#271e2c" fill-opacity="0.361" d="M1 118h1v1h-1zM378 118h1v1h-1zM1 251h1v1h-1zM378 251h1v1h-1z"/><path fill="#251e2d" fill-opacity="0.761" d="M2 118h21v1h-21zM357 118h21v1h-21z"/><path fill="#2f2636" fill-opacity="0.706" d="M23 118h1v1h-1z"/><path fill="#47404c" fill-opacity="0.761" d="M24 118h21v1h-21zM46 118h22v1h-22zM69 118h21v1h-21zM91 118h21v1h-21zM113 118h21v1h-21zM135 118h21v1h-21zM157 118h21v1h-21zM179 118h22v1h-22z"/><path fill="#48414d" fill-opacity="0.737" d="M45 118h1v1h-1z"/><path fill="#48404e" fill-opacity="0.733" d="M68 118h1v1h-1zM112 184h1v1h-1zM112 207h1v1h-1z"/><path fill="#49424e" fill-opacity="0.702" d="M90 118h1v1h-1z"/><path fill="#47424d" fill-opacity="0.686" d="M112 118h1v1h-1zM112 140h1v1h-1zM134 140h1v1h-1z"/><path fill="#46424d" fill-opacity="0.686" d="M134 118h1v1h-1z"/><path fill="#47424e" fill-opacity="0.702" d="M156 118h1v1h-1zM134 162h1v1h-1z"/><path fill="#47414c" fill-opacity="0.733" d="M178 118h1v1h-1z"/><path fill="#38323d" fill-opacity="0.733" d="M201 118h1v1h-1z"/><path fill="#36323c" fill-opacity="0.761" d="M202 118h21v1h-21zM224 118h21v1h-21zM246 118h21v1h-21zM268 118h21v1h-21zM290 118h21v1h-21zM312 118h22v1h-22zM335 118h21v1h-21z"/><path fill="#36303d" fill-opacity="0.702" d="M223 118h1v1h-1z"/><path fill="#36323d" fill-opacity="0.686" d="M245 118h1v1h-1z"/><path fill="#38333e" fill-opacity="0.682" d="M267 118h1v1h-1z"/><path fill="#38303d" fill-opacity="0.702" d="M289 118h1v1h-1zM245 162h1v1h-1z"/><path fill="#37313c" fill-opacity="0.733" d="M311 118h1v1h-1zM267 207h1v1h-1z"/><path fill="#36323c" fill-opacity="0.737" d="M334 118h1v1h-1z"/><path fill="#29212f" fill-opacity="0.706" d="M356 118h1v1h-1z"/><path fill="#241e2c" fill-opacity="0.361" d="M1 140h1v1h-1zM378 140h1v1h-1z"/><path fill="#261e2d" fill-opacity="0.757" d="M2 140h21v1h-21zM357 140h21v1h-21zM2 251h21v1h-21zM357 251h21v1h-21z"/><path fill="#2d2834" fill-opacity="0.706" d="M23 140h1v1h-1z"/><path fill="#47414d" fill-opacity="0.757" d="M24 140h21v1h-21zM46 140h22v1h-22zM69 140h21v1h-21zM91 140h21v1h-21zM113 140h21v1h-21zM135 140h21v1h-21zM157 140h21v1h-21zM179 140h22v1h-22z"/><path fill="#48424c" fill-opacity="0.737" d="M45 140h1v1h-1z"/><path fill="#49404d" fill-opacity="0.729" d="M68 140h1v1h-1z"/><path fill="#45414c" fill-opacity="0.706" d="M156 140h1v1h-1z"/><path fill="#46414c" fill-opacity="0.733" d="M178 140h1v1h-1z"/><path fill="#37323e" fill-opacity="0.757" d="M202 140h21v1h-21zM224 140h21v1h-21zM246 140h21v1h-21zM268 140h21v1h-21zM290 140h21v1h-21zM312 140h22v1h-22zM335 140h21v1h-21z"/><path fill="#36323d" fill-opacity="0.706" d="M223 140h1v1h-1zM267 162h1v1h-1z"/><path fill="#37323d" fill-opacity="0.686" d="M245 140h1v1h-1z"/><path fill="#37333f" fill-opacity="0.686" d="M267 140h1v1h-1z"/><path fill="#36323c" fill-opacity="0.702" d="M289 140h1v1h-1z"/><path fill="#37323c" fill-opacity="0.733" d="M311 140h1v1h-1z"/><path fill="#38313d" fill-opacity="0.737" d="M334 140h1v1h-1z"/><path fill="#28222f" fill-opacity="0.706" d="M356 140h1v1h-1z"/><path fill="#251f2c" fill-opacity="0.816" d="M2 162h21v1h-21zM357 162h21v1h-21z"/><path fill="#2d2637" fill-opacity="0.733" d="M23 162h1v1h-1z"/><path fill="#47414c" fill-opacity="0.816" d="M24 162h21v1h-21zM46 162h22v1h-22zM69 162h21v1h-21zM91 162h21v1h-21zM113 162h21v1h-21zM135 162h21v1h-21zM157 162h21v1h-21zM179 162h22v1h-22z"/><path fill="#46404c" fill-opacity="0.784" d="M45 162h1v1h-1z"/><path fill="#463f4d" fill-opacity="0.729" d="M90 162h1v1h-1z"/><path fill="#47414e" fill-opacity="0.706" d="M112 162h1v1h-1z"/><path fill="#46414d" fill-opacity="0.725" d="M156 162h1v1h-1z"/><path fill="#37323f" fill-opacity="0.780" d="M201 162h1v1h-1z"/><path fill="#37323c" fill-opacity="0.816" d="M202 162h21v1h-21zM224 162h21v1h-21zM246 162h21v1h-21zM268 162h21v1h-21zM290 162h21v1h-21zM312 162h22v1h-22zM335 162h21v1h-21z"/><path fill="#36323d" fill-opacity="0.725" d="M223 162h1v1h-1z"/><path fill="#37333d" fill-opacity="0.784" d="M334 162h1v1h-1z"/><path fill="#282231" fill-opacity="0.733" d="M356 162h1v1h-1z"/><path fill="#271f2c" fill-opacity="0.388" d="M1 184h1v1h-1zM378 184h1v1h-1z"/><path fill="#251f2c" fill-opacity="0.925" d="M2 184h21v1h-21zM357 184h21v1h-21z"/><path fill="#2d2836" fill-opacity="0.784" d="M23 184h1v1h-1z"/><path fill="#46424e" fill-opacity="0.925" d="M24 184h21v1h-21zM46 184h22v1h-22zM69 184h21v1h-21zM91 184h21v1h-21zM113 184h21v1h-21zM135 184h21v1h-21zM157 184h21v1h-21zM179 184h22v1h-22z"/><path fill="#46414e" fill-opacity="0.871" d="M45 184h1v1h-1z"/><path fill="#47424d" fill-opacity="0.859" d="M68 184h1v1h-1z"/><path fill="#46414e" fill-opacity="0.773" d="M90 184h1v1h-1z"/><path fill="#47404e" fill-opacity="0.733" d="M134 184h1v1h-1z"/><path fill="#48424e" fill-opacity="0.863" d="M178 184h1v1h-1z"/><path fill="#36333d" fill-opacity="0.863" d="M201 184h1v1h-1z"/><path fill="#37323d" fill-opacity="0.925" d="M202 184h21v1h-21zM224 184h21v1h-21zM246 184h21v1h-21zM268 184h21v1h-21zM290 184h21v1h-21zM312 184h22v1h-22zM335 184h21v1h-21z"/><path fill="#36323c" fill-opacity="0.780" d="M223 184h1v1h-1z"/><path fill="#38323d" fill-opacity="0.737" d="M245 184h1v1h-1zM245 207h1v1h-1z"/><path fill="#38313c" fill-opacity="0.733" d="M267 184h1v1h-1z"/><path fill="#35323c" fill-opacity="0.773" d="M289 184h1v1h-1z"/><path fill="#37333e" fill-opacity="0.859" d="M311 184h1v1h-1z"/><path fill="#36333e" fill-opacity="0.871" d="M334 184h1v1h-1z"/><path fill="#26202f" fill-opacity="0.784" d="M356 184h1v1h-1zM356 207h1v1h-1z"/><path fill="#251e2c" fill-opacity="0.925" d="M2 207h21v1h-21zM357 207h21v1h-21z"/><path fill="#2e2836" fill-opacity="0.784" d="M23 207h1v1h-1z"/><path fill="#46414e" fill-opacity="0.925" d="M24 207h21v1h-21zM46 207h22v1h-22zM69 207h21v1h-21zM91 207h21v1h-21zM113 207h21v1h-21zM135 207h21v1h-21zM157 207h21v1h-21zM179 207h22v1h-22z"/><path fill="#46404e" fill-opacity="0.871" d="M45 207h1v1h-1z"/><path fill="#47414c" fill-opacity="0.773" d="M90 207h1v1h-1z"/><path fill="#47404d" fill-opacity="0.737" d="M134 207h1v1h-1z"/><path fill="#47424e" fill-opacity="0.863" d="M178 207h1v1h-1z"/><path fill="#36323d" fill-opacity="0.863" d="M201 207h1v1h-1z"/><path fill="#36323d" fill-opacity="0.925" d="M202 207h21v1h-21zM224 207h21v1h-21zM246 207h21v1h-21zM268 207h21v1h-21zM290 207h21v1h-21zM312 207h22v1h-22zM335 207h21v1h-21z"/><path fill="#36323d" fill-opacity="0.776" d="M289 207h1v1h-1z"/><path fill="#37333d" fill-opacity="0.871" d="M334 207h1v1h-1z"/><path fill="#48434f" fill-opacity="0.733" d="M23 229h1v1h-1z"/><path fill="#acafaf" fill-opacity="0.816" d="M24 229h21v1h-21zM46 229h22v1h-22zM69 229h21v1h-21zM91 229h21v1h-21zM113 229h21v1h-21zM135 229h21v1h-21zM157 229h21v1h-21zM179 229h22v1h-22z"/><path fill="#aaacad" fill-opacity="0.784" d="M45 229h1v1h-1z"/><path fill="#abaeae" fill-opacity="0.776" d="M68 229h1v1h-1z"/><path fill="#a7aaab" fill-opacity="0.725" d="M90 229h1v1h-1z"/><path fill="#a6a7aa" fill-opacity="0.706" d="M112 229h1v1h-1z"/><path fill="#a7a8aa" fill-opacity="0.702" d="M134 229h1v1h-1z"/><path fill="#a7abab" fill-opacity="0.729" d="M156 229h1v1h-1z"/><path fill="#a9adad" fill-opacity="0.780" d="M178 229h1v1h-1z"/><path fill="#9f9fa0" fill-opacity="0.780" d="M201 229h1v1h-1z"/><path fill="#a1a1a2" fill-opacity="0.816" d="M202 229h21v1h-21zM224 229h21v1h-21zM246 229h21v1h-21zM268 229h21v1h-21zM290 229h21v1h-21zM312 229h22v1h-22zM335 229h21v1h-21z"/><path fill="#9c9b9c" fill-opacity="0.729" d="M223 229h1v1h-1z"/><path fill="#9b9a9d" fill-opacity="0.702" d="M245 229h1v1h-1z"/><path fill="#9a9a9c" fill-opacity="0.706" d="M267 229h1v1h-1z"/><path fill="#9c9c9e" fill-opacity="0.729" d="M289 229h1v1h-1z"/><path fill="#a0a0a0" fill-opacity="0.776" d="M311 229h1v1h-1z"/><path fill="#a19fa1" fill-opacity="0.784" d="M334 229h1v1h-1z"/><path fill="#322d3b" fill-opacity="0.733" d="M356 229h1v1h-1z"/><path fill="#4c4a55" fill-opacity="0.824" d="M23 230h1v21h-1z"/><path fill="#b4b8b7" d="M24 230h21v21h-21zM46 230h22v21h-22zM69 230h21v21h-21zM91 230h21v21h-21zM113 230h21v21h-21zM135 230h21v21h-21zM157 230h21v21h-21zM179 230h22v21h-22z"/><path fill="#b4b9b8" fill-opacity="0.937" d="M45 230h1v21h-1z"/><path fill="#b5b8b7" fill-opacity="0.918" d="M68 230h1v21h-1z"/><path fill="#b4b8b6" fill-opacity="0.812" d="M90 230h1v21h-1z"/><path fill="#b4b9b8" fill-opacity="0.757" d="M112 230h1v21h-1z"/><path fill="#b4b8b7" fill-opacity="0.761" d="M134 230h1v21h-1z"/><path fill="#b3b8b8" fill-opacity="0.816" d="M156 230h1v21h-1z"/><path fill="#b4b8b7" fill-opacity="0.929" d="M178 230h1v21h-1z"/><path fill="#aaaaaa" fill-opacity="0.929" d="M201 230h1v21h-1zM201 252h1v21h-1z"/><path fill="#aaaaaa" d="M202 230h21v21h-21zM224 230h21v21h-21zM246 230h21v21h-21zM268 230h21v21h-21zM290 230h21v21h-21zM312 230h22v21h-22zM335 230h21v21h-21zM202 252h21v21h-21zM224 252h21v21h-21zM246 252h21v21h-21zM268 252h21v21h-21zM290 252h21v21h-21zM312 252h22v21h-22zM335 252h21v21h-21z"/><path fill="#aaaaaa" fill-opacity="0.816" d="M223 230h1v21h-1zM223 252h1v21h-1z"/><path fill="#ababab" fill-opacity="0.761" d="M245 230h1v21h-1zM245 252h1v21h-1z"/><path fill="#aaaaaa" fill-opacity="0.757" d="M267 230h1v21h-1zM202 251h21v1h-21zM224 251h21v1h-21zM246 251h21v1h-21zM268 251h21v1h-21zM290 251h21v1h-21zM312 251h22v1h-22zM335 251h21v1h-21zM267 252h1v21h-1z"/><path fill="#aaaaaa" fill-opacity="0.812" d="M289 230h1v21h-1z"/><path fill="#aaaaaa" fill-opacity="0.918" d="M311 230h1v21h-1zM311 252h1v21h-1z"/><path fill="#ababab" fill-opacity="0.937" d="M334 230h1v21h-1zM334 252h1v21h-1z"/><path fill="#2d2735" fill-opacity="0.824" d="M356 230h1v21h-1zM356 252h1v21h-1z"/><path fill="#4b4552" fill-opacity="0.706" d="M23 251h1v1h-1z"/><path fill="#b8b9ba" fill-opacity="0.757" d="M24 251h21v1h-21zM46 251h22v1h-22zM69 251h21v1h-21zM91 251h21v1h-21zM113 251h21v1h-21zM135 251h21v1h-21zM157 251h21v1h-21zM179 251h22v1h-22zM112 252h1v21h-1z"/><path fill="#b6b7b8" fill-opacity="0.737" d="M45 251h1v1h-1z"/><path fill="#b5b7b8" fill-opacity="0.733" d="M68 251h1v1h-1z"/><path fill="#b6b6b9" fill-opacity="0.702" d="M90 251h1v1h-1z"/><path fill="#b6b8b9" fill-opacity="0.686" d="M112 251h1v1h-1z"/><path fill="#b6b8b8" fill-opacity="0.686" d="M134 251h1v1h-1z"/><path fill="#b6b9b9" fill-opacity="0.702" d="M156 251h1v1h-1z"/><path fill="#b8b9bb" fill-opacity="0.733" d="M178 251h1v1h-1z"/><path fill="#acacac" fill-opacity="0.733" d="M201 251h1v1h-1z"/><path fill="#ababab" fill-opacity="0.702" d="M223 251h1v1h-1z"/><path fill="#aaaaaa" fill-opacity="0.686" d="M245 251h1v1h-1z"/><path fill="#ababab" fill-opacity="0.682" d="M267 251h1v1h-1z"/><path fill="#aaaaaa" fill-opacity="0.702" d="M289 251h1v1h-1z"/><path fill="#aaaaaa" fill-opacity="0.733" d="M311 251h1v1h-1z"/><path fill="#aaaaaa" fill-opacity="0.737" d="M334 251h1v1h-1z"/><path fill="#3a3340" fill-opacity="0.706" d="M356 251h1v1h-1z"/><path fill="#4f4a56" fill-opacity="0.824" d="M23 252h1v21h-1z"/><path fill="#b7b8ba" d="M24 252h21v21h-21zM46 252h22v21h-22zM69 252h21v21h-21zM91 252h21v21h-21zM113 252h21v21h-21zM135 252h21v21h-21zM157 252h21v21h-21zM179 252h22v21h-22z"/><path fill="#b7b8ba" fill-opacity="0.933" d="M45 252h1v21h-1z"/><path fill="#b7b8ba" fill-opacity="0.918" d="M68 252h1v21h-1z"/><path fill="#b6b8ba" fill-opacity="0.812" d="M90 252h1v21h-1z"/><path fill="#b7b7b9" fill-opacity="0.761" d="M134 252h1v21h-1z"/><path fill="#b7b8ba" fill-opacity="0.816" d="M156 252h1v21h-1z"/><path fill="#b8b8ba" fill-opacity="0.925" d="M178 252h1v21h-1z"/><path fill="#ababab" fill-opacity="0.808" d="M289 252h1v21h-1z"/><path fill="#251f2c" fill-opacity="0.588" d="M2 273h21v1h-21zM357 273h21v1h-21z"/><path fill="#45404c" fill-opacity="0.565" d="M23 273h1v1h-1z"/><path fill="#67636d" fill-opacity="0.761" d="M24 273h21v1h-21zM46 273h22v1h-22zM69 273h21v1h-21zM91 273h21v1h-21zM113 273h21v1h-21zM135 273h21v1h-21zM157 273h21v1h-21zM179 273h22v1h-22z"/><path fill="#67666e" fill-opacity="0.737" d="M45 273h1v1h-1z"/><path fill="#68646d" fill-opacity="0.733" d="M68 273h1v1h-1z"/><path fill="#68646f" fill-opacity="0.702" d="M90 273h1v1h-1z"/><path fill="#67656f" fill-opacity="0.686" d="M112 273h1v1h-1z"/><path fill="#67656d" fill-opacity="0.686" d="M134 273h1v1h-1z"/><path fill="#67636e" fill-opacity="0.706" d="M156 273h1v1h-1z"/><path fill="#67646b" fill-opacity="0.737" d="M178 273h1v1h-1z"/><path fill="#625e66" fill-opacity="0.737" d="M201 273h1v1h-1z"/><path fill="#605c65" fill-opacity="0.761" d="M202 273h21v1h-21zM224 273h21v1h-21zM246 273h21v1h-21zM268 273h21v1h-21zM290 273h21v1h-21zM312 273h22v1h-22zM335 273h21v1h-21z"/><path fill="#615e67" fill-opacity="0.702" d="M223 273h1v1h-1zM289 273h1v1h-1z"/><path fill="#625f67" fill-opacity="0.686" d="M245 273h1v1h-1zM267 273h1v1h-1z"/><path fill="#615e66" fill-opacity="0.733" d="M311 273h1v1h-1z"/><path fill="#615e65" fill-opacity="0.741" d="M334 273h1v1h-1z"/><path fill="#352e3c" fill-opacity="0.569" d="M356 273h1v1h-1z"/><path fill="#281c2d" fill-opacity="0.176" d="M23 295h1v1h-1zM356 295h1v1h-1z"/><path fill="#261f2d" fill-opacity="0.718" d="M45 295h1v1h-1z"/><path fill="#251e2d" fill-opacity="0.706" d="M68 295h1v1h-1zM311 295h1v1h-1z"/><path fill="#251f2d" fill-opacity="0.647" d="M90 295h1v1h-1zM289 295h1v1h-1z"/><path fill="#251f2d" fill-opacity="0.616" d="M112 295h1v1h-1zM267 295h1v1h-1z"/><path fill="#241d2d" fill-opacity="0.616" d="M134 295h1v1h-1zM245 295h1v1h-1z"/><path fill="#26202d" fill-opacity="0.667" d="M156 295h1v1h-1z"/><path fill="#26212e" fill-opacity="0.780" d="M178 295h1v1h-1z"/><path fill="#433f4a" fill-opacity="0.816" d="M179 295h22v1h-22z"/><path fill="#261f2e" fill-opacity="0.780" d="M201 295h1v1h-1z"/><path fill="#261e2d" fill-opacity="0.667" d="M223 295h1v1h-1z"/><path fill="#261f2e" fill-opacity="0.718" d="M334 295h1v1h-1z"/><path fill="#241c2d" fill-opacity="0.247" d="M156 296h1v21h-1zM223 296h1v21h-1z"/><path fill="#261f2d" fill-opacity="0.929" d="M178 296h1v21h-1zM201 296h1v21h-1z"/><path fill="#898989" d="M179 296h22v21h-22zM157 318h21v22h-21zM179 318h22v22h-22zM202 318h21v22h-21z"/><path fill="#202020" fill-opacity="0.031" d="M134 317h1v1h-1zM245 317h1v1h-1z"/><path fill="#261a33" fill-opacity="0.078" d="M135 317h21v1h-21zM224 317h21v1h-21z"/><path fill="#272332" fill-opacity="0.282" d="M156 317h1v1h-1zM223 317h1v1h-1z"/><path fill="#2d2836" fill-opacity="0.929" d="M157 317h21v1h-21zM202 317h21v1h-21z"/><path fill="#302937" fill-opacity="0.871" d="M178 317h1v1h-1zM201 317h1v1h-1z"/><path fill="#8a8a8a" fill-opacity="0.929" d="M179 317h22v1h-22z"/><path fill="#241d2e" fill-opacity="0.416" d="M134 318h1v22h-1zM134 341h1v21h-1z"/><path fill="#2c2633" fill-opacity="0.816" d="M156 318h1v22h-1zM223 318h1v22h-1z"/><path fill="#898989" fill-opacity="0.929" d="M178 318h1v22h-1zM201 318h1v22h-1z"/><path fill="#241d2e" fill-opacity="0.412" d="M245 318h1v22h-1zM245 341h1v21h-1z"/><path fill="#251e2d" fill-opacity="0.400" d="M134 340h1v1h-1z"/><path fill="#251e2e" fill-opacity="0.776" d="M156 340h1v1h-1z"/><path fill="#261f2f" fill-opacity="0.859" d="M178 340h1v1h-1zM201 340h1v1h-1z"/><path fill="#251f2e" fill-opacity="0.776" d="M223 340h1v1h-1z"/><path fill="#261e2d" fill-opacity="0.396" d="M245 340h1v1h-1z"/><path fill="#261c2f" fill-opacity="0.106" d="M134 362h1v1h-1zM245 362h1v1h-1z"/></svg>