<svg xmlns="http://www.w3.org/2000/svg" viewBox="0 0 320 640" shape-rendering="crispEdges" preserveAspectRatio="xMidYMid meet"><path fill="#130125" d="M180 0h10v10h-10zM110 10h10v10h-10zM130 10h50v10h-50zM190 10h10v10h-10zM100 20h10v10h-10zM120 20h10v10h-10zM180 20h10v10h-10zM110 30h10v10h-10zM190 30h10v10h-10zM100 40h10v20h-10zM90 60h10v20h-10zM110 60h10v20h-10zM200 40h10v50h-10zM210 90h20v10h-20zM100 80h10v30h-10zM230 100h10v10h-10zM90 110h10v20h-10zM220 110h10v20h-10zM80 130h10v30h-10zM230 130h10v50h-10zM70 160h10v30h-10zM240 180h10v10h-10zM60 190h10v10h-10zM250 190h10v10h-10zM70 200h10v10h-10zM240 200h10v10h-10zM60 210h10v10h-10zM250 210h10v10h-10zM260 220h10v30h-10zM50 220h10v40h-10zM270 250h10v30h-10zM40 260h10v40h-10zM110 250h10v50h-10zM200 250h10v50h-10zM280 280h10v20h-10zM30 300h10v20h-10zM20 320h10v30h-10zM290 300h10v50h-10zM10 350h10v20h-10zM300 350h10v20h-10zM20 370h10v10h-10zM290 370h10v10h-10zM30 380h20v10h-20zM270 380h20v10h-20zM50 390h30v10h-30zM240 390h30v10h-30zM60 400h10v30h-10zM250 400h10v30h-10zM50 430h10v30h-10zM260 430h10v30h-10zM40 460h10v30h-10zM270 460h10v30h-10zM30 490h10v30h-10zM280 490h10v40h-10zM290 530h10v40h-10zM20 520h10v60h-10zM10 580h10v40h-10zM300 570h10v50h-10zM0 620h10v10h-10zM310 620h10v10h-10zM10 630h300v10h-300z"/><path fill="#ffffff" d="M180 10h10v10h-10zM110 20h10v10h-10zM130 20h50v10h-50zM120 30h20v10h-20zM150 30h40v10h-40zM140 40h20v10h-20zM110 40h20v20h-20zM140 50h10v10h-10zM170 40h30v20h-30zM180 60h20v10h-20zM100 60h10v20h-10zM120 60h20v20h-20zM190 70h10v20h-10zM200 90h10v10h-10zM110 80h20v30h-20zM200 100h30v10h-30zM100 110h30v10h-30zM190 110h30v10h-30zM100 120h20v10h-20zM200 120h20v10h-20zM90 130h30v10h-30zM130 130h10v10h-10zM180 130h10v10h-10zM200 130h10v10h-10zM120 140h20v10h-20zM180 140h20v10h-20zM90 140h10v20h-10zM130 150h20v10h-20zM220 130h10v30h-10zM190 150h10v20h-10zM80 160h10v20h-10zM20 350h20v10h-20zM280 350h20v10h-20zM20 360h10v10h-10zM290 360h10v10h-10zM30 370h10v10h-10zM80 370h10v10h-10zM230 370h10v10h-10zM280 370h10v10h-10zM50 380h30v10h-30zM240 380h30v10h-30zM90 470h30v10h-30zM210 470h30v10h-30zM70 480h60v20h-60zM190 480h60v20h-60zM60 500h70v10h-70zM200 500h60v10h-60zM50 510h80v20h-80zM200 510h70v20h-70zM200 530h80v10h-80zM40 530h80v20h-80zM40 550h70v10h-70zM210 540h70v20h-70zM30 560h80v10h-80zM220 560h70v10h-70zM30 570h70v30h-70zM230 570h60v30h-60zM30 600h100v10h-100zM220 600h70v10h-70zM30 610h20v10h-20zM90 610h40v10h-40zM190 610h50v10h-50z"/><path fill="#e7e7e7" d="M140 30h10v10h-10zM130 40h10v20h-10zM130 100h10v10h-10zM180 100h10v10h-10zM130 110h20v10h-20zM170 110h20v10h-20zM120 120h20v10h-20zM180 120h20v10h-20zM120 130h10v10h-10zM190 130h10v10h-10zM100 140h10v10h-10zM210 130h10v20h-10z"/><path fill="#a492ac" d="M160 40h10v10h-10zM150 50h20v10h-20zM140 60h40v10h-40zM140 70h50v10h-50zM130 80h20v10h-20zM90 210h10v10h-10zM150 210h20v10h-20zM220 210h10v10h-10zM100 220h10v10h-10zM160 220h10v10h-10zM210 220h10v10h-10z"/><path fill="#eae1c8" d="M150 80h20v10h-20zM130 90h10v10h-10z"/><path fill="#ece3cb" d="M170 80h20v10h-20zM140 90h50v10h-50zM140 100h40v10h-40zM150 120h20v10h-20zM80 200h10v20h-10zM230 200h10v20h-10zM90 220h10v10h-10zM220 220h10v10h-10zM100 230h10v10h-10zM210 230h10v10h-10z"/><path fill="#222222" d="M190 90h10v10h-10z"/><path fill="#090909" d="M190 100h10v10h-10z"/><path fill="#beafc1" d="M150 110h20v10h-20zM70 360h10v10h-10zM240 360h10v10h-10z"/><path fill="#0c0c0d" d="M140 120h10v10h-10zM170 120h10v10h-10zM200 140h10v10h-10zM210 150h10v10h-10zM210 160h20v10h-20zM180 170h10v10h-10zM200 170h30v10h-30zM170 180h10v10h-10zM210 180h30v10h-30zM240 190h10v10h-10zM160 200h10v10h-10z"/><path fill="#252527" d="M140 130h20v20h-20zM150 150h10v20h-10z"/><path fill="#1d1d20" d="M160 130h10v40h-10z"/><path fill="#101015" d="M170 130h10v20h-10zM170 150h20v10h-20zM180 160h10v10h-10z"/><path fill="#181a1c" d="M110 140h10v10h-10z"/><path fill="#131516" d="M100 150h10v10h-10zM90 160h10v20h-10z"/><path fill="#29292d" d="M110 150h10v10h-10zM110 160h20v10h-20zM140 170h20v10h-20zM150 180h10v10h-10z"/><path fill="#212127" d="M120 150h10v10h-10zM130 160h20v10h-20z"/><path fill="#121213" d="M170 160h10v10h-10zM200 150h10v20h-10zM160 170h20v10h-20zM160 180h10v20h-10zM110 240h10v10h-10zM120 250h10v10h-10zM120 260h20v40h-20zM110 300h40v10h-40z"/><path fill="#1b1b1e" d="M100 160h10v10h-10zM100 170h40v10h-40zM140 180h10v10h-10zM150 190h10v20h-10z"/><path fill="#0d0d0f" d="M190 170h10v10h-10zM120 240h10v10h-10z"/><path fill="#211d22" d="M80 180h60v10h-60zM180 180h30v10h-30zM70 190h20v10h-20zM120 190h30v10h-30zM170 190h30v10h-30zM230 190h10v10h-10zM90 200h10v10h-10zM140 200h10v10h-10zM170 200h10v10h-10zM220 200h10v10h-10zM100 210h10v10h-10zM210 210h10v10h-10zM240 210h10v10h-10zM70 220h20v10h-20zM110 220h20v10h-20zM190 220h20v10h-20zM230 220h20v10h-20zM80 230h20v10h-20zM130 230h30v10h-30zM170 230h20v10h-20zM220 230h20v10h-20zM150 240h20v10h-20zM90 240h20v20h-20zM210 240h20v20h-20zM100 260h10v50h-10zM210 260h10v50h-10zM90 310h10v40h-10zM220 310h10v40h-10zM80 350h20v10h-20zM220 350h20v10h-20z"/><path fill="#1d2022" d="M90 190h30v10h-30zM100 200h20v10h-20zM70 210h10v10h-10zM110 210h30v10h-30zM200 210h10v10h-10zM60 220h10v10h-10zM130 220h20v10h-20zM250 220h10v10h-10zM60 230h20v10h-20zM240 230h20v10h-20zM230 240h30v10h-30zM60 240h30v20h-30zM230 250h40v10h-40zM220 260h50v20h-50zM50 260h50v40h-50zM220 280h60v20h-60zM40 300h60v10h-60zM220 300h70v10h-70zM40 310h50v10h-50zM30 320h60v20h-60zM230 310h60v30h-60zM40 340h50v10h-50zM230 340h50v10h-50zM90 360h10v20h-10zM220 360h10v20h-10zM80 380h30v20h-30zM220 380h20v20h-20zM210 400h40v20h-40zM70 400h40v30h-40zM200 420h50v10h-50zM60 430h50v10h-50zM240 430h20v10h-20zM70 440h30v10h-30z"/><path fill="#1c1f22" d="M200 190h30v10h-30zM200 200h20v10h-20zM180 210h20v10h-20zM170 220h20v10h-20z"/><path fill="#69120a" d="M120 200h20v10h-20zM180 200h20v10h-20z"/><path fill="#80160c" d="M140 210h10v10h-10zM170 210h10v10h-10z"/><path fill="#cccccc" d="M150 220h10v10h-10zM160 230h10v10h-10z"/><path fill="#0d0e0f" d="M110 230h20v10h-20zM130 240h20v10h-20z"/><path fill="#131415" d="M190 230h20v10h-20zM170 240h20v10h-20zM150 250h20v10h-20z"/><path fill="#17181a" d="M190 240h10v10h-10z"/><path fill="#1c1d1e" d="M200 240h10v10h-10zM190 250h10v10h-10zM180 260h20v40h-20zM170 300h40v10h-40z"/><path fill="#0e0d0f" d="M130 250h20v10h-20zM140 260h10v40h-10z"/><path fill="#18171a" d="M170 250h20v10h-20zM170 260h10v40h-10z"/><path fill="#574f61" d="M150 260h10v10h-10z"/><path fill="#060707" d="M160 260h10v10h-10zM150 270h20v10h-20zM160 280h10v10h-10zM150 290h20v10h-20zM160 300h10v10h-10z"/><path fill="#63646f" d="M150 280h10v10h-10zM150 300h10v10h-10z"/><path fill="#24202b" d="M100 310h50v10h-50zM170 310h50v10h-50zM100 320h10v20h-10zM210 320h10v20h-10zM110 340h20v10h-20zM190 340h20v10h-20zM120 350h80v10h-80zM120 360h10v20h-10zM190 360h10v20h-10zM130 380h10v50h-10zM180 380h10v50h-10zM140 430h10v60h-10zM170 430h10v60h-10zM130 490h10v40h-10zM180 490h10v40h-10zM120 530h10v20h-10zM190 530h10v20h-10zM110 550h10v20h-10zM200 550h10v20h-10zM100 570h10v20h-10zM210 570h10v20h-10zM100 590h30v10h-30zM190 590h30v10h-30zM130 600h60v10h-60z"/><path fill="#030304" d="M150 310h20v10h-20z"/><path fill="#26242b" d="M160 320h50v10h-50zM110 320h40v20h-40zM170 330h40v10h-40zM130 340h10v10h-10zM180 340h10v10h-10zM130 360h60v20h-60zM140 380h40v50h-40zM150 430h20v60h-20zM140 490h40v40h-40zM130 530h60v20h-60zM120 550h80v20h-80zM120 570h90v10h-90zM130 580h80v10h-80zM150 590h40v10h-40z"/><path fill="#d0d0d0" d="M150 320h10v10h-10zM160 330h10v10h-10zM140 340h20v10h-20zM170 340h10v10h-10z"/><path fill="#a3a3a3" d="M150 330h10v10h-10zM160 340h10v10h-10z"/><path fill="#a5a5a5" d="M30 340h10v10h-10zM280 340h10v10h-10zM40 350h40v10h-40zM240 350h40v10h-40zM30 360h10v10h-10zM80 360h10v10h-10zM230 360h10v10h-10zM280 360h10v10h-10zM40 370h40v10h-40zM240 370h40v10h-40z"/><path fill="#1e2427" d="M100 340h10v10h-10zM100 350h20v30h-20zM210 350h10v30h-10zM200 380h20v20h-20zM200 400h10v20h-10zM110 380h20v50h-20zM190 430h10v10h-10zM120 430h20v20h-20z"/><path fill="#181d20" d="M210 340h10v10h-10zM200 350h10v30h-10zM190 380h10v50h-10zM180 430h10v10h-10z"/><path fill="#fff6dd" d="M40 360h30v10h-30zM250 360h30v10h-30z"/><path fill="#1b1f22" d="M110 430h10v10h-10z"/><path fill="#ebdaf7" d="M200 430h40v10h-40zM60 440h10v10h-10zM100 440h20v10h-20zM60 450h80v10h-80zM190 440h70v20h-70zM50 460h90v10h-90zM190 460h80v10h-80zM50 470h40v10h-40zM120 470h20v10h-20zM190 470h20v10h-20zM240 470h30v10h-30zM50 480h20v10h-20zM130 480h10v10h-10zM250 480h20v10h-20zM40 490h30v10h-30zM250 490h30v10h-30zM40 500h20v10h-20zM260 500h20v10h-20zM40 510h10v10h-10zM30 520h20v10h-20zM270 510h10v20h-10zM30 530h10v30h-10zM280 530h10v30h-10zM290 570h10v40h-10zM20 580h10v40h-10zM50 610h40v10h-40zM240 610h60v10h-60zM10 620h40v10h-40zM80 620h50v10h-50zM180 620h60v10h-60zM290 620h20v10h-20z"/><path fill="#cab3d9" d="M180 440h10v50h-10zM190 500h10v30h-10zM200 540h10v10h-10zM210 560h10v10h-10zM220 570h10v30h-10zM190 600h30v10h-30zM130 610h60v10h-60z"/><path fill="#24242b" d="M110 570h10v10h-10zM110 580h20v10h-20zM130 590h20v10h-20z"/><path fill="#a482ba" d="M50 620h30v10h-30zM130 620h50v10h-50zM240 620h50v10h-50z"/></svg>